<svg xmlns="http://www.w3.org/2000/svg" xmlns:xlink="http://www.w3.org/1999/xlink" version="1.1" x="0px" y="0px" viewBox="0 0 100 100" enable-background="new 0 0 100 100" xml:space="preserve"><path fill="#000000" d="M33.901,91.662l-0.106-4.096c0,0-0.03-32.463-0.021-33.051c0.074-4.811,0.354-10.659,6.996-15.573  c6.814-5.043,7.649-10.07,7.719-11.82L48.465,15.61c-0.312,0-0.618-0.025-0.917-0.073c-0.004,1.638-0.007,10.329-0.007,10.329  c-0.073,1.752-0.94,6.79-8.028,11.84c-6.908,4.925-7.838,9.834-7.917,14.651c-0.01,0.59,0.022,33.117,0.022,33.117  S31.615,88.412,33.901,91.662z M52.846,98.045c-5.366,0.046-8.915-0.087-11.95-0.355c-12.063-1.062-11.631-12.553-11.631-12.553  s-0.031-32.527-0.021-33.115c0.079-4.819,1.01-9.729,7.918-14.652c7.088-5.052,7.955-10.089,8.027-11.842v-9.329  c0.009-0.499,0.152-0.965,0.397-1.367c-1.664-0.973-2.784-2.779-2.784-4.842c0-2.547,1.672-4.73,4.098-5.398  c0.961-1.865,2.84-3.012,4.969-3.012c2.146,0,4.08,1.214,5.021,3.122c2.889,0.216,5.182,2.651,5.182,5.587  c0,1.758-0.814,3.33-2.086,4.357c0.32,0.441,0.512,0.975,0.521,1.552v2.457c0.274,1.477,1.563,2.462,2.729,2.462  c0,0,1.326-0.044,1.563-0.044c3.878,0,7.022,3.144,7.022,7.022c0,0.222-0.012,0.441-0.031,0.657c0,1.073-0.096,1.887,0.648,2.588  c0.336,0.296,0.549,0.728,0.549,1.211c0,0.891-0.723,1.614-1.612,1.614c-0.272,0-0.528-0.069-0.754-0.188  c0,0-0.524-0.218-0.822-0.24c-0.526-0.04-1.024,0.132-1.413,0.444c-0.445,0.358-0.738,0.906-0.746,1.548  c-0.011,0.707,0.305,1.149,0.559,1.395l0.338,0.244c1.238,0.884,2.287,1.768,3.171,2.649c4.043,4.035,4.681,8.049,4.745,12.003  c0.01,0.588-0.021,33.114-0.021,33.114S76.863,96.626,64.8,97.689C62.611,97.884,56.71,98.016,52.846,98.045z M64.8,24.714  c-1.868,0-3.382,1.514-3.382,3.381c0,1.868,1.514,3.382,3.382,3.382c1.867,0,3.382-1.514,3.382-3.382  C68.182,26.228,66.667,24.714,64.8,24.714z M48.696,60.889c0,1.321,0.512,2.352,1.521,3.061c0.596,0.417,1.23,0.632,1.707,0.729  v-1.709c0-1.322-0.512-2.352-1.521-3.062c-0.596-0.415-1.231-0.631-1.707-0.727V60.889z M48.696,66.514  c0,1.321,0.512,2.352,1.521,3.059c0.115,0.08,0.232,0.156,0.35,0.222c0.55,0.296,0.998,0.435,1.357,0.509v-1.709  c0-1.322-0.512-2.351-1.521-3.061c-0.596-0.418-1.231-0.633-1.707-0.729V66.514z M48.696,72.119c0,1.32,0.512,2.35,1.521,3.061  c0.596,0.418,1.23,0.633,1.707,0.729v-1.709c0-1.321-0.512-2.352-1.521-3.059c-0.116-0.082-0.232-0.156-0.35-0.222  c-0.551-0.297-0.999-0.437-1.357-0.508V72.119z M53.16,64.678c0.477-0.098,1.109-0.312,1.706-0.729  c1.01-0.709,1.521-1.738,1.521-3.061V59.18c-0.477,0.098-1.111,0.312-1.707,0.729c-0.377,0.265-0.684,0.574-0.922,0.927  l-0.119,0.192c-0.318,0.552-0.479,1.199-0.479,1.941V64.678z M53.16,70.301c0.357-0.072,0.807-0.212,1.261-0.455  c0.213-0.117,0.33-0.193,0.445-0.273c1.01-0.707,1.521-1.736,1.521-3.059v-1.709c-0.477,0.096-1.111,0.311-1.707,0.729  c-1.01,0.71-1.521,1.738-1.521,3.061L53.16,70.301L53.16,70.301z M53.16,75.906c0.477-0.096,1.109-0.309,1.706-0.729  c1.01-0.709,1.521-1.738,1.521-3.06V70.41c-0.359,0.07-0.807,0.211-1.262,0.456c-0.213,0.116-0.33,0.19-0.445,0.272  c-1.01,0.707-1.521,1.736-1.521,3.059L53.16,75.906L53.16,75.906z M53.585,55.16c-0.323-0.895-0.767-1.465-1.035-1.707  c-0.271,0.242-0.713,0.812-1.036,1.707c-0.311,0.852-0.686,2.516,0.285,4.08l0.75,1.201l0.75-1.199  C54.271,57.676,53.896,56.01,53.585,55.16z M53.159,47.178v5.188c0.594,0.421,1.192,1.3,1.579,2.354  c0.289,0.791,0.621,2.141,0.265,3.608c0.483-0.207,0.965-0.341,1.386-0.404v-5.198c0-0.342,0.274-0.617,0.616-0.617  c0.341,0,0.617,0.275,0.617,0.617v19.393c0,2.177-1.113,3.415-2.047,4.068c-0.779,0.549-1.688,0.86-2.415,0.974v1.267  c5.386-0.492,9.654-7.299,9.654-15.625S58.546,47.666,53.159,47.178z M42.263,62.803c0,8.329,4.272,15.139,9.662,15.625v-1.267  c-0.728-0.112-1.637-0.425-2.416-0.974c-0.934-0.653-2.047-1.893-2.047-4.068V52.727c0-0.34,0.276-0.615,0.617-0.615  c0.341,0,0.617,0.275,0.617,0.615v5.199c0.424,0.064,0.912,0.2,1.399,0.41c-0.358-1.469-0.026-2.822,0.263-3.615  c0.385-1.047,0.977-1.916,1.566-2.343v-5.2C46.535,47.662,42.263,54.473,42.263,62.803z M56.468,6.91  c-0.432,0-0.843,0.084-1.223,0.231c-0.021-1.847-1.522-3.337-3.377-3.337c-1.672,0-3.058,1.217-3.327,2.814l-0.136-0.007  c-1.867,0-3.379,1.512-3.379,3.378c0,1.867,1.512,3.379,3.379,3.379c0.584,0,1.133-0.149,1.613-0.41  c0.619,0.725,1.539,1.186,2.567,1.186c0.383,0,0.75-0.064,1.093-0.183v5.18c0,0.799-0.387,1.184-0.387,2.25  c0,1.079,0.785,1.616,1.562,1.606c0.774,0.01,1.559-0.527,1.559-1.606c0-1.066-0.387-1.451-0.387-2.25v-5.504  c0.145,0.019,0.291,0.029,0.44,0.029c1.865,0,3.38-1.513,3.38-3.379C59.846,8.421,58.333,6.91,56.468,6.91z"/></svg>