<svg xmlns="http://www.w3.org/2000/svg" xmlns:xlink="http://www.w3.org/1999/xlink" version="1.1" x="0px" y="0px" viewBox="0 0 100 100" enable-background="new 0 0 100 100" xml:space="preserve"><path d="M85.088,45.05c-1.784-10.34-8.536-18.974-11.621-22.469l5.659-5.981c5.532-5.844,5.843-12.17,5.853-12.437  c0.053-1.358-1-2.499-2.36-2.561c-1.448-0.046-2.512,0.995-2.584,2.351c-0.011,0.195-0.306,4.807-4.507,9.242l-5.584,5.902  c-3.687-3.199-12.12-9.61-22.146-11.338c-1.791-0.308-3.638-0.464-5.485-0.464c-10.79,0-18.796,5.229-19.131,5.452  c-0.56,0.371-0.944,0.952-1.066,1.61c-0.122,0.66,0.027,1.34,0.414,1.887c0.101,0.14,0.732,1.011,1.769,2.268  c-8.144,6.321-12.417,15.905-12.651,16.439c-0.462,1.059-0.13,2.297,0.8,2.983c0.057,0.042,0.275,0.2,0.634,0.447  c-7.637,9.123-8.591,22.344-8.631,23c-0.073,1.157,0.665,2.204,1.773,2.531c0.073,0.023,0.723,0.206,1.73,0.433  C3.569,74.14,4.717,85.279,4.786,85.878c0.128,1.146,1.035,2.053,2.184,2.182c0.066,0.01,1.657,0.184,4.116,0.184c0,0,0,0,0.001,0  c4.296,0,11.127-0.591,17.404-3.389c0.227,0.993,0.41,1.641,0.447,1.766c0.311,1.058,1.282,1.778,2.373,1.778  c0.05,0,0.104,0,0.156-0.008c0.653-0.039,13.874-0.987,22.995-8.631c0.229,0.333,0.397,0.575,0.443,0.635  c0.478,0.649,1.224,1.006,1.994,1.006c0.331,0,0.667-0.067,0.987-0.205c0.536-0.232,10.125-4.505,16.449-12.647  c1.254,1.034,2.123,1.663,2.262,1.762c0.42,0.301,0.922,0.459,1.433,0.459c0.149,0,0.302-0.013,0.45-0.043  c0.662-0.121,1.242-0.505,1.613-1.062C80.392,69.21,87.4,58.463,85.088,45.05z M77.058,64.359c-0.572-0.488-1.23-1.073-1.929-1.724  c-0.607-0.559-1.236-1.171-1.895-1.84c-2.748-2.796-5.725-6.478-7.617-10.61c-0.366-0.791-0.701-1.59-0.968-2.41  c-0.289-0.892-0.555-1.786-0.713-2.701c-0.01-0.055-0.003-0.111-0.013-0.169c-0.444-2.736-0.165-5.354,0.483-7.768  c0.363-1.361,0.831-2.647,1.383-3.846c0.665-1.446,1.406-2.771,2.156-3.915c0.023-0.035,0.043-0.06,0.065-0.094  c0.705-1.066,1.391-1.979,1.991-2.718c0.054-0.067,0.117-0.153,0.168-0.215c0.784,0.919,1.771,2.158,2.821,3.62  c2.832,3.954,6.134,9.649,7.213,15.922c1.384,8.02-1.237,15.105-2.942,18.642C77.2,64.483,77.119,64.412,77.058,64.359z   M58.767,75.158c-0.346,0.198-0.726,0.417-1.018,0.574c-0.327-0.522-0.702-1.159-1.106-1.878c-0.424-0.76-0.872-1.633-1.324-2.576  c-1.092-2.252-2.157-4.97-2.863-7.911c-0.226-0.954-0.39-1.928-0.526-2.916c-0.158-1.177-0.228-2.363-0.209-3.567  c1.139-0.246,2.278-0.551,3.434-0.916c1.14-0.357,2.269-0.788,3.396-1.278c0.023-0.011,0.041-0.021,0.061-0.026  c0.816-0.36,1.62-0.751,2.409-1.187c0.168-0.092,0.327-0.202,0.492-0.297c0.642,1.292,1.381,2.53,2.163,3.719  c2.152,3.266,4.673,6.085,6.935,8.291C66.971,69.989,61.916,73.374,58.767,75.158z M33.205,83.213  c-0.053-0.247-0.108-0.586-0.163-0.873c-0.151-0.788-0.298-1.701-0.434-2.732c-0.126-0.947-0.225-1.965-0.297-3.061  c-0.111-1.718-0.108-3.56,0.036-5.479c1.358-0.111,2.782-0.266,4.296-0.525c0.979-0.171,1.979-0.396,2.991-0.641  c0.986-0.246,1.972-0.551,2.964-0.886c1.894-0.638,3.753-1.471,5.548-2.51c1.024,3.482,2.438,6.551,3.71,8.927  C45.902,80.792,37.148,82.647,33.205,83.213z M9.58,83.265c-0.122-3.659,0.125-11.512,3.471-18.052  c1.766,0.215,3.753,0.376,5.904,0.376c0.912,0,1.75-0.104,2.621-0.158c0.029,1.98,0.164,3.268,0.187,3.459  c0.129,1.149,1.036,2.055,2.183,2.185c0.057,0.011,1.37,0.141,3.386,0.174c-0.195,3.127-0.019,6.085,0.283,8.553  C21.107,83.125,13.29,83.399,9.58,83.265z M9.626,59.64c0.562-3.945,2.404-12.695,7.78-18.661c2.369,1.271,5.438,2.672,8.903,3.699  c-1.051,1.813-1.886,3.706-2.529,5.618c-0.33,0.979-0.629,1.957-0.869,2.928c-0.252,1.008-0.445,1.996-0.613,2.971  c-0.26,1.5-0.437,2.938-0.546,4.283c-0.921,0.07-1.82,0.162-2.797,0.162c-0.919,0-1.81-0.038-2.667-0.092  c-1.098-0.07-2.112-0.179-3.06-0.305c-1.032-0.137-1.926-0.284-2.715-0.436C10.216,59.755,9.881,59.693,9.626,59.64z M28.304,15.57  c2.825-1.369,7.926-3.323,14.009-3.323c1.566,0,3.127,0.132,4.639,0.394c6.283,1.082,11.982,4.391,15.936,7.229  c1.455,1.042,2.689,2.026,3.606,2.806c-0.062,0.05-0.143,0.111-0.208,0.164c-0.74,0.608-1.66,1.303-2.736,2.016  c-0.027,0.017-0.06,0.035-0.084,0.052c-1.152,0.756-2.478,1.506-3.935,2.173c-1.203,0.553-2.484,1.05-3.856,1.412  c-1.565,0.414-3.229,0.667-4.957,0.667c-0.9,0-1.798-0.091-2.68-0.227c-0.091-0.015-0.188-0.009-0.277-0.025  c-0.909-0.159-1.806-0.42-2.693-0.712c-0.829-0.271-1.635-0.61-2.435-0.979c-4.117-1.896-7.786-4.867-10.578-7.611  c-0.669-0.656-1.282-1.285-1.844-1.891c-0.648-0.7-1.233-1.354-1.721-1.93C28.433,15.718,28.356,15.635,28.304,15.57z M60.9,31.99  c-0.288,0.679-0.56,1.383-0.805,2.109c-0.326,0.958-0.583,1.964-0.803,2.993c-0.068,0.324-0.139,0.646-0.197,0.976  c-0.203,1.202-0.319,2.447-0.336,3.728c-0.006,0.421-0.016,0.843,0.004,1.273c0.017,0.357,0.056,0.721,0.091,1.081  c0.042,0.459,0.084,0.918,0.154,1.384c0.023,0.13,0.023,0.252,0.047,0.38c0.152,0.885,0.364,1.757,0.615,2.614  c-0.55,0.35-1.118,0.662-1.693,0.957c-0.087,0.048-0.172,0.102-0.256,0.146c-0.987,0.496-1.992,0.919-3.021,1.283  c-0.735,0.263-1.465,0.483-2.205,0.688c-0.925,0.25-1.835,0.478-2.745,0.649c-0.891,0.167-1.77,0.322-2.615,0.426  c-0.816,0.104-1.607,0.182-2.36,0.232c-0.386,0.03-0.728,0.044-1.093,0.057c-0.159,0.011-0.311,0.015-0.465,0.02  c-0.307,0.011-0.633,0.03-0.922,0.037c-0.605,0.011-1.126,0.008-1.634-0.003c-0.271-0.004-0.593,0-0.831-0.009  c-0.008-0.236-0.004-0.562-0.01-0.834c-0.008-0.501-0.01-1.021,0.002-1.628c0.007-0.285,0.024-0.607,0.036-0.919  c0.006-0.158,0.01-0.312,0.017-0.475c0.019-0.359,0.034-0.699,0.059-1.08c0.056-0.763,0.131-1.562,0.234-2.397  c0.104-0.835,0.258-1.708,0.426-2.592c0.172-0.907,0.396-1.82,0.649-2.746c0.202-0.736,0.424-1.46,0.684-2.191  c0.363-1.028,0.788-2.041,1.286-3.03c0.043-0.086,0.102-0.168,0.145-0.255c0.297-0.575,0.607-1.141,0.955-1.691  c0.857,0.251,1.726,0.463,2.611,0.614c0.124,0.023,0.256,0.014,0.387,0.033c0.528,0.083,1.062,0.094,1.601,0.137  c0.289,0.022,0.574,0.061,0.871,0.073c0.312,0.015,0.62,0.081,0.938,0.081c0.107,0,0.214-0.015,0.326-0.017  c1.279-0.016,2.524-0.138,3.728-0.348c0.326-0.056,0.646-0.127,0.968-0.196c1.038-0.222,2.05-0.497,3.015-0.824  c0.719-0.243,1.419-0.504,2.094-0.791c0.034-0.015,0.067-0.031,0.104-0.045C60.935,31.923,60.918,31.953,60.9,31.99z M26.617,62.304  c0.042-0.814,0.117-1.683,0.216-2.594c0.185-1.727,0.502-3.566,0.979-5.455c0.229-0.917,0.496-1.828,0.816-2.742  c0.321-0.921,0.667-1.828,1.091-2.719c0.491-1.025,1.049-2.027,1.697-2.977c1.215,0.174,2.456,0.273,3.709,0.297  c-0.074,0.715-0.131,1.399-0.171,2.061c-0.055,0.879-0.092,1.715-0.104,2.474c-0.014,0.938,0,1.745,0.026,2.454  c0,0.008,0,0.013,0,0.017c0.045,1.301,0.123,2.154,0.15,2.41c0.003,0.023,0.007,0.081,0.009,0.094  c0.029,0.256,0.108,0.494,0.209,0.719c0.249,0.566,0.692,1.006,1.255,1.255c0.225,0.101,0.462,0.182,0.718,0.208  c0.004,0,0.074,0.007,0.095,0.011c0.197,0.022,1.028,0.104,2.394,0.146c0.01,0,0.026,0,0.04,0c0.481,0.019,1.013,0.028,1.605,0.028  c0.257,0,0.571-0.018,0.846-0.021c0.774-0.013,1.601-0.047,2.499-0.103c0.664-0.041,1.328-0.082,2.042-0.158  c0.023,1.262,0.107,2.51,0.281,3.73c-0.935,0.638-1.924,1.187-2.938,1.671c-0.898,0.432-1.821,0.786-2.749,1.106  c-0.921,0.323-1.839,0.593-2.763,0.824c-1.884,0.471-3.714,0.784-5.437,0.972c-0.911,0.095-1.774,0.17-2.593,0.212  c-0.942,0.048-1.792,0.07-2.561,0.07c-0.498-0.003-1.014,0-1.417-0.014c-0.013-0.423-0.013-0.964-0.013-1.492  C26.548,64.043,26.569,63.216,26.617,62.304z M35.958,29.178c1.174,0.771,2.394,1.501,3.673,2.139  c-0.099,0.167-0.193,0.337-0.285,0.505c-0.437,0.785-0.835,1.58-1.193,2.388c-0.023,0.049-0.046,0.095-0.065,0.142  c-0.488,1.118-0.924,2.244-1.278,3.375c-0.363,1.155-0.648,2.304-0.894,3.44c-0.087,0.002-0.171,0.015-0.262,0.015  c-0.002,0-0.002,0-0.002,0c-1.104,0-2.196-0.099-3.28-0.245c-0.991-0.137-1.965-0.323-2.919-0.554  c-2.936-0.707-5.635-1.782-7.885-2.868c-0.947-0.456-1.809-0.905-2.57-1.328c-0.712-0.398-1.368-0.779-1.885-1.101  c0.158-0.292,0.379-0.672,0.576-1.018c1.788-3.148,5.169-8.198,9.968-11.83C29.863,24.503,32.687,27.028,35.958,29.178z"/></svg>