<svg xmlns="http://www.w3.org/2000/svg" xmlns:xlink="http://www.w3.org/1999/xlink" xmlns:a="http://ns.adobe.com/AdobeSVGViewerExtensions/3.0/" version="1.1" x="0px" y="0px" viewBox="0 0 75 100" enable-background="new 0 0 100 100" xml:space="preserve"><path d="M38.417,80.146c2.834-0.704,5.243-2.145,6.13-4.423c11.21-2.344,21.754-11.386,23.241-22.989  c1.07-8.353-1.054-16.657-3.896-24.462c-1.658-4.559-3.857-8.682-4.214-13.616c-0.215-2.96,0.79-8.327,1.514-10.006  C62.023,2.718,61.09,0,58.708,0C42.261,0,25.814,0,9.368,0C6.985,0,6.053,2.718,6.884,4.649c0.528,1.228,1.416,5.878,1.528,8.298  c0.236,5.034-1.959,9.444-3.75,13.98c-3.191,8.084-5.495,17.035-4.375,25.766c1.523,11.878,12.521,20.954,23.965,23.233  c0.526,0.914,1.276,1.748,1.926,2.446c0.286,0.308,0.593,0.524,0.908,0.671c0.709,0.45,1.583,0.816,2.572,1.08  c0.008,0.583,0.012,1.204,0.011,1.913c-0.006,3.996,0.368,6.765-1.988,8.095c-2.357,1.329-3.604,0.663-9.065,3.201  c0,0-6.226,2.442-8.704,2.562C7.434,96.016,5.559,98.042,9.307,99h49.46c3.747-0.958,1.875-2.986-0.604-3.106  c-2.478-0.12-8.704-2.491-8.704-2.491c-5.461-2.537-6.708-1.909-9.066-3.238c-2.356-1.329-1.983-4.123-1.987-8.117  C38.405,81.344,38.408,80.725,38.417,80.146z M13.317,6c13.829,0,27.657,0,41.485,0c-0.956,4-1.005,8.725-0.425,12.863  C54.596,20.419,55.065,22,55.629,24H21.643c-1.812,6-4.979,12.708-6.259,19.62c-1.319,7.128,0.281,12.708,6.997,16.338  c3.997,2.158,7.27,2.567,11.656,2.482c3.711-0.072,3.704,5.624,0,5.696c-10.824,0.21-22.951-4.836-24.678-16.668  C7.932,41.694,13.485,32,16.08,24H12.4c0.331-1,0.645-2.471,0.932-3.437C14.636,16.174,14.487,10,13.317,6z"/></svg>